<?xml version="1.0" standalone="no"?>
<!DOCTYPE svg PUBLIC "-//W3C//DTD SVG 20010904//EN"
 "http://www.w3.org/TR/2001/REC-SVG-20010904/DTD/svg10.dtd">
<svg version="1.0" xmlns="http://www.w3.org/2000/svg"
 width="200.000000pt" height="200.000000pt" viewBox="0 0 200.000000 200.000000"
 preserveAspectRatio="xMidYMid meet">
<metadata>
Created by potrace 1.10, written by Peter Selinger 2001-2011
</metadata>
<g transform="translate(0.000000,200.000000) scale(0.100000,-0.100000)"
fill="#000000" stroke="none">
<path d="M1547 1233 c2 -115 3 -118 25 -118 20 0 22 4 19 47 -2 36 2 51 19 68
16 16 24 18 40 10 16 -9 20 -21 20 -69 0 -56 1 -58 25 -58 24 0 25 2 25 64 0
55 -3 67 -26 90 -25 25 -43 27 -88 8 -17 -7 -18 -4 -14 33 3 39 2 42 -22 42
l-25 0 2 -117z m36 6 c-9 -9 -12 -7 -10 9 1 14 5 18 11 12 7 -7 6 -14 -1 -21z"/>
<path d="M158 1324 c-52 -28 -72 -98 -43 -153 15 -30 69 -61 104 -61 34 0 87
26 105 51 20 30 21 98 0 127 -34 49 -112 66 -166 36z m106 -45 c53 -42 23
-122 -46 -122 -62 0 -89 73 -43 118 30 30 54 31 89 4z"/>
<path d="M740 1229 l0 -114 25 -1 c22 -2 25 2 25 32 0 29 4 34 23 34 14 0 30
-12 43 -33 14 -22 29 -32 47 -33 33 -2 33 3 4 40 l-23 29 23 23 c29 29 29 66
0 100 -20 23 -33 27 -95 32 l-72 5 0 -114z m107 65 c27 -7 39 -40 23 -59 -7
-8 -28 -15 -46 -15 -33 0 -34 1 -34 40 0 42 8 47 57 34z m-80 -51 c-3 -10 -5
-4 -5 12 0 17 2 24 5 18 2 -7 2 -21 0 -30z m4 -66 c-8 -8 -11 -3 -11 19 1 25
2 27 11 11 8 -14 8 -22 0 -30z"/>
<path d="M600 1300 c0 -11 -6 -20 -13 -20 -7 0 -13 -9 -14 -21 -1 -14 3 -19
13 -15 11 4 14 -5 14 -44 0 -37 5 -55 20 -70 20 -20 55 -26 77 -12 16 10 -1
37 -24 37 -14 0 -19 10 -21 47 -3 41 -1 46 16 41 14 -3 21 2 25 16 4 17 1 21
-19 21 -17 0 -24 6 -24 20 0 15 -7 20 -25 20 -18 0 -25 -5 -25 -20z m44 -29
c3 -5 -1 -14 -9 -21 -13 -10 -15 -9 -15 9 0 21 14 28 24 12z"/>
<path d="M380 1219 c0 -73 11 -94 55 -105 13 -3 33 -1 44 6 12 6 21 7 21 2 0
-5 11 -9 25 -9 25 0 25 0 25 87 0 87 0 88 -25 88 -24 0 -25 -3 -25 -59 0 -49
-3 -60 -21 -69 -33 -18 -49 4 -49 70 0 55 -1 58 -25 58 -24 0 -25 -3 -25 -69z
m150 -61 c0 -16 -3 -19 -11 -11 -6 6 -8 16 -5 22 11 17 16 13 16 -11z"/>
<path d="M999 1275 c-38 -21 -55 -67 -39 -105 13 -32 55 -60 89 -60 24 0 71
20 71 30 0 15 -28 31 -35 20 -11 -17 -51 -11 -71 11 l-19 21 68 -4 c66 -3 67
-3 67 22 -1 29 -16 52 -47 68 -28 15 -52 15 -84 -3z m79 -37 c21 -21 13 -28
-33 -28 -25 0 -45 4 -45 8 0 15 24 32 45 32 12 0 26 -5 33 -12z"/>
<path d="M1183 1280 c-25 -10 -26 -11 -17 -33 4 -12 11 -13 33 -4 33 12 61 4
61 -18 0 -11 -11 -15 -39 -15 -65 0 -95 -52 -49 -84 29 -21 57 -20 80 1 15 13
18 13 18 2 0 -8 9 -15 20 -16 18 -2 20 4 20 67 0 62 -2 70 -26 89 -28 22 -64
26 -101 11z m107 -80 c0 -5 -2 -10 -4 -10 -3 0 -8 5 -11 10 -3 6 -1 10 4 10 6
0 11 -4 11 -10z m-29 -25 c1 -17 -35 -35 -50 -26 -23 14 -5 43 24 39 14 -2 26
-7 26 -13z"/>
<path d="M1410 1283 c-61 -22 -81 -100 -36 -142 35 -33 85 -38 120 -10 25 20
26 23 11 32 -12 6 -25 5 -42 -4 -34 -18 -58 -1 -58 41 0 42 24 59 58 41 17 -9
30 -10 42 -4 15 9 14 12 -10 31 -27 21 -54 26 -85 15z"/>
<path d="M746 1074 c-9 -22 1 -34 29 -34 26 0 39 22 22 39 -16 16 -44 14 -51
-5z"/>
<path d="M202 967 c-60 -135 -58 -127 -30 -127 17 0 29 8 36 25 10 22 18 25
62 25 44 0 52 -3 62 -25 7 -16 19 -25 35 -25 12 0 23 3 23 6 0 4 -21 53 -46
110 -43 95 -49 104 -74 104 -25 0 -31 -8 -68 -93z m78 31 c0 -7 7 -25 14 -40
l15 -28 -39 0 -39 0 15 28 c7 15 14 33 14 40 0 6 5 12 10 12 6 0 10 -6 10 -12z
m-52 -82 c-2 -1 -12 -8 -22 -16 -18 -14 -19 -14 -7 8 7 12 17 20 22 16 6 -3 9
-7 7 -8z m112 -6 c0 -5 -7 -7 -15 -4 -8 4 -12 10 -9 15 6 11 24 2 24 -11z"/>
<path d="M1020 1030 c0 -11 -7 -20 -15 -20 -8 0 -15 -9 -15 -20 0 -11 7 -20
15 -20 11 0 15 -12 15 -48 0 -35 5 -54 18 -65 20 -18 67 -23 76 -8 11 17 -5
39 -25 34 -17 -5 -19 0 -19 41 0 39 3 46 20 46 13 0 20 7 20 20 0 13 -7 20
-20 20 -13 0 -20 7 -20 20 0 15 -7 20 -25 20 -18 0 -25 -5 -25 -20z m32 -70
l-6 -35 -6 35 c-3 19 -4 41 -2 49 9 26 20 -12 14 -49z"/>
<path d="M1570 1030 c0 -11 -7 -20 -15 -20 -8 0 -15 -9 -15 -20 0 -11 7 -20
15 -20 11 0 15 -12 15 -49 0 -56 22 -81 72 -81 44 0 46 33 3 41 -16 3 -21 13
-23 47 -3 37 -1 42 17 42 14 0 21 6 21 20 0 13 -7 20 -20 20 -13 0 -20 7 -20
20 0 15 -7 20 -25 20 -18 0 -25 -5 -25 -20z m40 -40 c0 -21 -15 -27 -25 -10
-7 12 2 30 16 30 5 0 9 -9 9 -20z"/>
<path d="M454 1012 c-29 -4 -57 -36 -52 -58 3 -20 37 -40 81 -49 44 -9 20 -27
-31 -23 -37 2 -47 0 -50 -13 -6 -30 88 -40 126 -13 16 11 22 24 20 42 -2 23
-11 29 -51 41 -56 17 -57 36 -1 36 28 0 40 5 42 16 3 17 -39 27 -84 21z"/>
<path d="M611 1008 c-21 -6 -33 -16 -37 -34 -8 -32 12 -54 57 -63 18 -3 34
-12 37 -20 3 -10 -7 -12 -44 -9 -39 2 -49 0 -52 -13 -3 -18 24 -29 76 -29 34
0 72 29 72 54 0 18 -27 46 -45 46 -8 0 -26 5 -42 11 -24 9 -26 12 -11 20 9 5
31 8 49 7 24 -2 34 2 37 13 4 20 -49 29 -97 17z"/>
<path d="M1418 1005 c-16 -7 -28 -10 -28 -4 0 5 -9 9 -20 9 -18 0 -20 -7 -20
-85 0 -83 0 -85 24 -85 23 0 24 3 22 43 -5 63 8 89 41 85 27 -3 28 -6 31 -65
3 -59 4 -63 27 -63 24 0 25 3 25 64 0 92 -42 133 -102 101z m-35 -40 c-7 -21
-13 -19 -13 6 0 11 4 18 10 14 5 -3 7 -12 3 -20z m114 -67 c-2 -13 -4 -5 -4
17 -1 22 1 32 4 23 2 -10 2 -28 0 -40z"/>
<path d="M1836 1011 c-3 -4 -42 -23 -86 -42 -77 -31 -87 -39 -74 -51 9 -10
128 34 141 51 6 9 15 12 19 8 5 -4 -3 -18 -17 -30 -14 -12 -41 -46 -59 -75
-41 -66 -106 -124 -178 -158 -101 -48 -276 -42 -359 12 -22 14 -40 4 -28 -15
12 -20 123 -53 195 -58 86 -6 162 11 243 55 60 32 147 124 178 188 l23 48 21
-64 c12 -35 27 -66 33 -68 15 -5 15 -6 -2 70 -8 35 -17 80 -20 101 -7 35 -19
47 -30 28z"/>
<path d="M750 925 c0 -84 0 -85 25 -85 25 0 25 1 25 85 0 84 0 85 -25 85 -25
0 -25 -1 -25 -85z"/>
<path d="M846 991 c-33 -36 -6 -71 67 -86 45 -9 21 -28 -29 -22 -32 3 -44 1
-49 -11 -8 -21 -3 -24 49 -29 60 -7 99 16 94 55 -2 23 -11 29 -51 41 -56 17
-57 37 -1 35 37 -2 58 11 48 28 -3 4 -29 8 -58 8 -40 0 -57 -5 -70 -19z"/>
<path d="M1156 1001 c-4 -5 -3 -16 0 -24 4 -12 11 -13 35 -5 22 7 33 7 44 -2
25 -21 17 -30 -24 -30 -63 0 -93 -47 -53 -83 21 -19 54 -22 83 -7 13 7 19 7
19 0 0 -5 9 -10 20 -10 18 0 20 7 20 68 0 86 -14 102 -88 102 -28 0 -53 -4
-56 -9z m82 -122 c-19 -13 -42 -6 -46 13 -2 12 5 17 25 20 31 3 45 -18 21 -33z"/>
</g>
</svg>
